<svg xmlns="http://www.w3.org/2000/svg" xmlns:xlink="http://www.w3.org/1999/xlink" viewBox="0,0,256,256" width="64px" height="64px"><g transform="translate(-33.28,-33.28) scale(1.26,1.26)"><g fill="#FFFFFF" fill-rule="nonzero" stroke="none" stroke-width="1" stroke-linecap="butt" stroke-linejoin="miter" stroke-miterlimit="10" stroke-dasharray="" stroke-dashoffset="0" font-family="none" font-weight="none" font-size="none" text-anchor="none" style="mix-blend-mode: normal"><g transform="scale(4,4)"><path d="M31.9707,7.00195c-7.21,0 -13.70263,3.0545 -18.26562,7.9375l8.32422,12.375c1.762,-3.728 5.54441,-6.31445 9.94141,-6.31445h22.45313c-4.071,-8.29 -12.59412,-13.99805 -22.45312,-13.99805zM11.56055,17.57227c-2.888,4.077 -4.58984,9.05369 -4.58984,14.42969c0,12.41 9.04344,22.7012 20.89844,24.6582l5.47461,-13.75391c-0.451,0.056 -0.90705,0.0957 -1.37305,0.0957c-4.53945,0 -7.88819,-2.43173 -10.11719,-6.67578v-0.00195zM55.70117,24.13867l-15.02344,1.15625c1.433,1.858 2.29492,4.17903 2.29492,6.70703c0,1.727 -0.40914,3.35359 -1.11914,4.80859l-10.47266,20.17578c0.197,0.005 0.39284,0.01563 0.58984,0.01563c13.807,0 25,-11.193 25,-25c0.001,-2.748 -0.45053,-5.39028 -1.26953,-7.86328zM32.32031,24.85742c-1.05555,-0.05184 -2.10947,0.13093 -3.08594,0.53516c-3.64918,1.51123 -5.38233,5.69457 -3.87109,9.34375c1.51123,3.64918 5.69457,5.38233 9.34375,3.87109c3.09229,-1.2798 4.88338,-4.53309 4.31102,-7.83045c-0.57235,-3.29735 -3.35504,-5.75673 -6.69774,-5.91955z"></path></g></g></g></svg>