<?xml version="1.0" encoding="utf-8"?>

<!DOCTYPE svg PUBLIC "-//W3C//DTD SVG 1.1//EN" "http://www.w3.org/Graphics/SVG/1.1/DTD/svg11.dtd">
<!-- Uploaded to: SVG Repo, www.svgrepo.com, Generator: SVG Repo Mixer Tools -->
<svg height="800px" width="800px" version="1.1" id="_x32_" xmlns="http://www.w3.org/2000/svg" xmlns:xlink="http://www.w3.org/1999/xlink" 
	 viewBox="0 0 512 512"  xml:space="preserve">
<g fill="#FFFFFF" fill-rule="nonzero"> 
	<path class="st0" d="M256,0C114.81,0.021,0.022,114.81,0,256c0.022,141.19,114.81,255.979,256,256
		c141.19-0.021,255.979-114.81,256-256C511.979,114.81,397.184,0.021,256,0z M427.261,208.528c6.641,0,12.021,5.38,12.021,12.014
		c0,6.648-5.38,12.028-12.021,12.028c-6.634,0-12.015-5.38-12.015-12.028C415.246,213.908,420.627,208.528,427.261,208.528z
		 M398.416,113.422c8.718,0,15.781,7.064,15.781,15.768c0,8.726-7.064,15.789-15.781,15.789c-8.711,0-15.768-7.063-15.768-15.789
		C382.648,120.486,389.705,113.422,398.416,113.422z M304.676,69.106c5.31,0,9.613,4.303,9.613,9.612c0,5.317-4.302,9.62-9.613,9.62
		c-5.31,0-9.619-4.303-9.619-9.62C295.057,73.408,299.366,69.106,304.676,69.106z M354.373,229.599c0,51-44.45,92.345-99.275,92.345
		c-54.824,0-99.274-41.345-99.274-92.345c0-51.008,44.451-92.352,99.274-92.352C309.923,137.246,354.373,178.591,354.373,229.599z
		 M357.556,357.549c0,6.648-5.38,12.028-12.02,12.028c-6.634,0-12.015-5.38-12.015-12.028c0-6.634,5.38-12.014,12.015-12.014
		C352.177,345.535,357.556,350.916,357.556,357.549z M273.43,384c0,5.317-4.31,9.62-9.62,9.62c-5.31,0-9.613-4.303-9.613-9.62
		c0-5.31,4.303-9.613,9.613-9.613C269.12,374.387,273.43,378.69,273.43,384z M172.472,340.725c0,6.648-5.38,12.028-12.021,12.028
		c-6.641,0-12.021-5.38-12.021-12.028c0-6.634,5.38-12.014,12.021-12.014C167.092,328.711,172.472,334.092,172.472,340.725z
		 M218.141,81.127c6.641,0,12.021,5.38,12.021,12.014c0,6.648-5.38,12.028-12.021,12.028c-6.641,0-12.021-5.38-12.021-12.028
		C206.12,86.507,211.5,81.127,218.141,81.127z M65.064,176.282c17.056-51.134,56.014-92.155,105.803-112
		c5.549-2.212,11.845,0.492,14.056,6.042c2.211,5.549-0.5,11.844-6.05,14.056c-43.859,17.464-78.288,53.718-93.288,98.746
		c-1.887,5.67-8.014,8.733-13.684,6.838C66.233,188.078,63.169,181.95,65.064,176.282z M102.908,291.45
		c0,8.726-7.063,15.789-15.781,15.789c-8.711,0-15.768-7.063-15.768-15.789c0-8.704,7.057-15.767,15.768-15.767
		C95.846,275.683,102.908,282.746,102.908,291.45z M256,479.549c-93.711,0-173.908-57.69-207.141-139.464
		c9.676,9.106,21.726,15.718,34.613,16.711c45.514,3.486,26.542,64.472,79.641,57.5c74.739-9.81,51.204,27.88,92.922,27.88
		c41.719,0,17.662-33.415,92.923-27.88c47.401,3.486,22.753-59.246,79.64-57.5c11.127,0.338,21.606-4.373,30.486-11.62
		c2.704-4.612,5.176-9.359,7.528-14.176C435.782,417.564,353.141,479.549,256,479.549z"/>
</g>
</svg>