<svg width="215" height="215" viewBox="0 0 215 215" fill="none" xmlns="http://www.w3.org/2000/svg"><rect width="215" height="215" rx="107.5" fill="#000"/><mask id="a" style="mask-type:alpha" maskUnits="userSpaceOnUse" x="0" y="0" width="215" height="215"><circle cx="107.5" cy="107.5" r="107.5" fill="#C4C4C4"/></mask><g mask="url(#a)"><path d="M215.005 121.418l-99.299-6.644 90.945 36.334a106.416 106.416 0 0 0 8.354-29.69z" fill="url(#b)"/><path d="M194.613 171.613c-19.676 26.333-51.169 43.392-86.662 43.392C48.331 215.005 0 166.875 0 107.503 0 48.13 48.331 0 107.951 0c35.559 0 67.103 17.122 86.772 43.54l-90.184 48.072 58.035-59.361h-32.17l-39.51 54.613V32.251H64.77v150.503h26.124v-54.525l39.51 54.525h32.17l-56.528-57.494 88.567 46.353z" fill="url(#c)"/><path d="M206.651 63.897l-90.31 36.076 98.664-6.388a106.4 106.4 0 0 0-8.354-29.688z" fill="url(#d)"/></g><defs><linearGradient id="b" x1="107.503" y1="107.503" x2="215.005" y2="215.005" gradientUnits="userSpaceOnUse"><stop stop-color="#F50"/><stop offset="1" stop-color="#BF0"/></linearGradient><linearGradient id="c" x1="107.503" y1="107.503" x2="215.005" y2="215.005" gradientUnits="userSpaceOnUse"><stop stop-color="#F50"/><stop offset="1" stop-color="#BF0"/></linearGradient><linearGradient id="d" x1="107.503" y1="107.503" x2="215.005" y2="215.005" gradientUnits="userSpaceOnUse"><stop stop-color="#F50"/><stop offset="1" stop-color="#BF0"/></linearGradient></defs></svg>