<?xml version="1.0" encoding="iso-8859-1"?>
<!-- Uploaded to: SVG Repo, www.svgrepo.com, Generator: SVG Repo Mixer Tools -->
<!DOCTYPE svg PUBLIC "-//W3C//DTD SVG 1.1//EN" "http://www.w3.org/Graphics/SVG/1.1/DTD/svg11.dtd">
<svg fill="#fff" height="800px" width="800px" version="1.1" id="Capa_1" xmlns="http://www.w3.org/2000/svg" xmlns:xlink="http://www.w3.org/1999/xlink" 
	 viewBox="0 0 224.726 224.726" xml:space="preserve">
<path d="M223.612,109.586L190.5,35.752c-0.001-0.002-0.002-0.004-0.003-0.006l-0.043-0.096c-0.111-0.247-0.243-0.479-0.389-0.7
	c-0.039-0.06-0.086-0.114-0.127-0.171c-0.131-0.182-0.272-0.353-0.424-0.514c-0.06-0.063-0.121-0.125-0.184-0.185
	c-0.168-0.159-0.345-0.306-0.533-0.44c-0.049-0.036-0.094-0.076-0.145-0.11c-0.236-0.156-0.486-0.29-0.746-0.405
	c-0.074-0.033-0.151-0.057-0.227-0.086c-0.204-0.078-0.411-0.143-0.625-0.194c-0.088-0.021-0.175-0.042-0.264-0.058
	c-0.293-0.054-0.591-0.09-0.896-0.09h-58.428c-1-3.111-2.943-5.794-5.485-7.737v-7.262c0-2.761-2.239-5-5-5h-9.334
	c-2.761,0-5,2.239-5,5v7.381c-2.465,1.933-4.347,4.572-5.326,7.619H38.734c-0.305,0-0.602,0.037-0.896,0.09
	c-0.09,0.016-0.176,0.037-0.264,0.058c-0.214,0.051-0.422,0.116-0.625,0.194c-0.076,0.029-0.153,0.053-0.227,0.086
	c-0.26,0.115-0.51,0.248-0.746,0.405c-0.051,0.034-0.096,0.074-0.145,0.11c-0.188,0.134-0.365,0.28-0.533,0.44
	c-0.064,0.06-0.124,0.122-0.185,0.185c-0.153,0.161-0.293,0.333-0.424,0.514c-0.042,0.058-0.088,0.112-0.127,0.171
	c-0.146,0.221-0.278,0.453-0.389,0.7l-0.043,0.096c-0.001,0.002-0.002,0.004-0.003,0.006L0.897,109.848
	C0.335,110.657,0,111.636,0,112.696c0,21.358,17.376,38.734,38.734,38.734c21.358,0,38.734-17.376,38.734-38.734
	c0-1.06-0.334-2.038-0.897-2.847L46.456,42.696h50.986c1.007,2.905,2.831,5.424,5.204,7.286v125.381H58.308
	c-1.871,0-3.586,1.045-4.444,2.708L40.11,204.738c-0.799,1.55-0.733,3.405,0.174,4.894c0.908,1.489,2.525,2.398,4.27,2.398h135.519
	c0.006-0.001,0.012,0,0.02,0c2.761,0,5-2.239,5-5c0-0.98-0.282-1.894-0.769-2.665l-13.563-26.294
	c-0.858-1.663-2.573-2.708-4.444-2.708H121.98V50.101c2.449-1.873,4.334-4.436,5.363-7.405h50.828l-30.475,67.954
	c-0.008,0.018-0.012,0.036-0.02,0.054c-0.023,0.054-0.04,0.11-0.062,0.165c-0.09,0.229-0.162,0.463-0.217,0.699
	c-0.014,0.062-0.032,0.122-0.044,0.184c-0.055,0.287-0.083,0.576-0.087,0.866c0,0.027-0.008,0.051-0.008,0.078
	c0,21.358,17.376,38.734,38.734,38.734s38.734-17.376,38.734-38.734C224.726,111.514,224.298,110.442,223.612,109.586z
	 M64.646,107.696H12.822l25.912-57.781L64.646,107.696z M118.226,37.53c0,3.217-2.617,5.833-5.833,5.833
	c-3.217,0-5.834-2.617-5.834-5.833c0-3.217,2.617-5.833,5.834-5.833C115.609,31.696,118.226,34.313,118.226,37.53z M159.98,107.696
	l25.913-57.781l25.912,57.781H159.98z"/>
</svg>