<?xml version="1.0" standalone="no"?>
<!DOCTYPE svg PUBLIC "-//W3C//DTD SVG 20010904//EN"
 "http://www.w3.org/TR/2001/REC-SVG-20010904/DTD/svg10.dtd">
<svg version="1.0" xmlns="http://www.w3.org/2000/svg"
 width="16.000000pt" height="16.000000pt" viewBox="0 0 16.000000 16.000000"
 preserveAspectRatio="xMidYMid meet">

<g transform="translate(0.000000,16.000000) scale(0.100000,-0.100000)"
fill="#000000" stroke="none">
<path d="M0 80 l0 -80 80 0 80 0 0 80 0 80 -80 0 -80 0 0 -80z m70 35 c10 -12
10 -18 0 -30 -10 -12 -10 -18 0 -30 7 -9 10 -18 7 -21 -3 -3 -12 3 -19 15 -15
24 -28 27 -28 7 0 -8 -4 -18 -10 -21 -6 -4 -10 13 -10 44 0 47 2 51 24 51 13
0 29 -7 36 -15z m70 -20 c15 -18 5 -35 -21 -35 -11 0 -17 -5 -14 -10 4 -6 16
-8 28 -4 17 5 19 3 11 -6 -18 -18 -54 -3 -54 24 0 21 17 46 31 46 4 0 12 -7
19 -15z"/>
<path d="M24 109 c-10 -17 13 -36 27 -22 12 12 4 33 -11 33 -5 0 -12 -5 -16
-11z"/>
</g>
</svg>
