<svg width="1361" height="1294" viewBox="0 0 1361 1294" fill="none" xmlns="http://www.w3.org/2000/svg">
<path d="M259.85 1294L263.137 1290.29L266.421 1286.58L269.705 1282.87L272.99 1279.15L276.274 1275.44L279.561 1271.73L282.845 1268.02L286.129 1264.31L289.413 1260.59L292.7 1256.88L295.985 1253.17L299.269 1249.46L302.553 1245.75L305.837 1242.03L309.124 1238.32L312.408 1234.61L315.692 1230.9L318.976 1227.19L322.26 1223.47L325.548 1219.76L328.832 1216.05L332.116 1212.34L335.4 1208.63L338.687 1204.91L341.971 1201.2L345.255 1197.49L348.539 1193.78L351.823 1190.07L355.111 1186.36L358.395 1182.64L361.679 1178.93L364.963 1175.22L368.247 1171.51L371.534 1167.8L374.818 1164.08L378.103 1160.37L381.387 1156.66L384.671 1152.95L387.958 1149.24L391.242 1145.52L394.526 1141.81L397.81 1138.1L401.094 1134.39L404.382 1130.68L407.666 1126.96L410.95 1123.25L414.234 1119.54L417.518 1115.83L420.805 1112.12L424.089 1108.4L427.373 1104.7L430.657 1100.98L433.945 1097.27L437.229 1093.56L440.513 1089.85L443.797 1086.13L447.081 1082.42L450.368 1078.71L453.652 1075L456.936 1071.29L460.22 1067.58L463.505 1063.86L466.792 1060.15L470.076 1056.44L473.36 1052.73L476.644 1049.01L479.931 1045.3L483.215 1041.59L486.5 1037.88L489.784 1034.17L493.068 1030.46L496.355 1026.74L499.639 1023.03L502.923 1019.32L506.207 1015.61L509.491 1011.9L512.779 1008.19L516.063 1004.47L519.347 1000.76L522.631 997.047L525.915 993.335L529.202 989.626L532.486 985.913L535.77 982.2L539.054 978.488L542.338 974.779L545.626 971.066L548.91 967.354L552.194 963.641L555.478 959.928L558.762 956.216L562.049 952.506L565.333 948.794L568.618 945.082L571.902 941.369L575.189 937.66L578.473 933.947L581.757 930.234L585.041 926.522L588.325 922.809L591.613 919.097L594.897 915.388L598.181 911.675L601.465 907.962L604.749 904.25L608.036 900.537L611.32 896.828L614.604 893.115L617.888 889.403L621.176 885.69L624.46 881.981L627.744 878.268L631.028 874.556L634.312 870.843L637.599 867.131L640.883 863.418L644.167 859.709L647.451 855.996L650.736 852.284L654.023 848.571L657.307 844.862L660.591 841.149L663.875 837.437L667.159 833.724L670.446 830.011L673.731 826.299L677.015 822.59L680.299 818.877L683.583 822.59L686.87 826.299L690.154 830.011L693.438 833.724L696.722 837.437L700.006 841.149L703.294 844.862L706.578 848.571L709.862 852.284L713.146 855.996L716.433 859.709L719.717 863.418L723.001 867.131L726.285 870.843L729.569 874.556L732.857 878.268L736.141 881.981L739.425 885.69L742.709 889.403L745.993 893.115L749.28 896.828L752.564 900.537L755.848 904.25L759.132 907.962L762.42 911.675L765.704 915.388L768.988 919.097L772.272 922.809L775.556 926.522L778.84 930.234L782.127 933.947L785.412 937.66L788.696 941.369L791.98 945.082L795.267 948.794L798.551 952.506L801.835 956.216L805.119 959.928L808.403 963.641L811.691 967.354L814.975 971.066L818.259 974.779L821.543 978.488L824.827 982.2L828.114 985.913L831.398 989.626L834.682 993.335L837.966 997.047L841.25 1000.76L844.538 1004.47L847.822 1008.19L851.106 1011.9L854.39 1015.61L857.677 1019.32L860.961 1023.03L864.245 1026.74L867.53 1030.46L870.814 1034.17L874.101 1037.88L877.385 1041.59L880.669 1045.3L883.953 1049.01L887.237 1052.73L890.525 1056.44L893.809 1060.15L897.093 1063.86L900.377 1067.58L903.661 1071.29L906.948 1075L910.232 1078.71L913.516 1082.42L916.8 1086.13L920.084 1089.85L923.372 1093.56L926.656 1097.27L929.94 1100.98L933.224 1104.7L936.511 1108.4L939.795 1112.12L943.079 1115.83L946.363 1119.54L949.647 1123.25L952.935 1126.96L956.219 1130.68L959.503 1134.39L962.787 1138.1L966.071 1141.81L969.358 1145.52L972.643 1149.24L975.926 1152.95L979.211 1156.66L982.498 1160.37L985.782 1164.08L989.066 1167.8L992.35 1171.51L995.634 1175.22L998.922 1178.93L1002.21 1182.64L1005.49 1186.36L1008.77 1190.07L1012.06 1193.78L1015.35 1197.49L1018.63 1201.2L1021.91 1204.91L1025.2 1208.63L1028.48 1212.34L1031.77 1216.05L1035.05 1219.76L1038.34 1223.47L1041.62 1227.19L1044.9 1230.9L1048.19 1234.61L1051.48 1238.32L1054.76 1242.03L1058.04 1245.75L1061.33 1249.46L1064.62 1253.17L1067.9 1256.88L1071.18 1260.59L1074.47 1264.31L1077.75 1268.02L1081.04 1271.73L1084.32 1275.44L1087.61 1279.15L1090.89 1282.87L1094.18 1286.58L1097.46 1290.29L1100.75 1294L1098.23 1289.73L1095.72 1285.46L1093.2 1281.19L1090.69 1276.92L1088.17 1272.65L1085.65 1268.38L1083.14 1264.1L1080.62 1259.83L1078.11 1255.56L1075.6 1251.29L1073.08 1247.02L1070.57 1242.75L1068.05 1238.48L1065.54 1234.21L1063.02 1229.93L1060.5 1225.67L1057.99 1221.39L1055.47 1217.12L1052.96 1212.85L1050.44 1208.58L1047.93 1204.31L1045.41 1200.04L1042.9 1195.77L1040.38 1191.5L1037.87 1187.23L1035.35 1182.95L1032.84 1178.69L1030.32 1174.41L1027.81 1170.14L1025.29 1165.87L1022.78 1161.6L1020.26 1157.33L1017.75 1153.06L1015.23 1148.79L1012.72 1144.52L1010.2 1140.24L1007.68 1135.97L1005.17 1131.7L1002.65 1127.43L1000.14 1123.16L997.623 1118.89L995.108 1114.62L992.592 1110.35L990.08 1106.08L987.561 1101.8L985.049 1097.54L982.534 1093.26L980.019 1088.99L977.503 1084.72L974.988 1080.45L972.472 1076.18L969.957 1071.91L967.442 1067.64L964.926 1063.37L962.411 1059.09L959.895 1054.82L957.38 1050.55L954.865 1046.28L952.349 1042.01L949.834 1037.74L947.319 1033.47L944.806 1029.2L942.288 1024.93L939.776 1020.66L937.26 1016.39L934.745 1012.11L932.23 1007.84L929.714 1003.57L927.199 999.301L924.683 995.029L922.168 990.757L919.653 986.489L917.137 982.217L914.622 977.945L912.106 973.676L909.591 969.404L907.076 965.133L904.56 960.861L902.045 956.592L899.533 952.32L897.014 948.048L894.502 943.776L891.987 939.507L889.471 935.236L886.956 930.964L884.441 926.692L881.925 922.423L879.41 918.151L876.894 913.879L874.379 909.611L871.864 905.339L869.348 901.067L866.833 896.795L864.317 892.527L861.802 888.255L859.287 883.983L856.771 879.714L854.256 875.442L851.744 871.17L849.228 866.898L846.713 862.63L844.198 858.358L841.682 854.086L839.167 849.814L836.651 845.545L834.136 841.273L831.621 837.002L829.105 832.73L826.59 828.461L824.075 824.189L821.559 819.917L819.044 815.645L816.528 811.377L814.013 807.105L811.498 802.833L808.982 798.564L806.47 794.293L803.955 790.021L801.439 785.749L798.924 781.48L796.409 777.208L793.893 772.936L791.378 768.664L788.862 764.396L786.347 760.124L783.832 755.852L781.316 751.583L778.801 747.311L783.348 745.332L787.891 743.357L792.438 741.381L796.981 739.402L801.528 737.427L806.074 735.451L810.618 733.472L815.164 731.496L819.708 729.517L824.255 727.541L828.798 725.566L833.345 723.587L837.891 721.611L842.435 719.632L846.981 717.657L851.525 715.681L856.071 713.702L860.615 711.726L865.161 709.747L869.708 707.772L874.251 705.796L878.798 703.817L883.342 701.841L887.888 699.866L892.432 697.887L896.978 695.911L901.525 693.936L906.068 691.957L910.615 689.981L915.158 688.002L919.705 686.026L924.248 684.051L928.795 682.071L933.342 680.096L937.885 678.117L942.432 676.141L946.975 674.165L951.522 672.187L956.065 670.211L960.612 668.232L965.158 666.256L969.702 664.281L974.248 662.302L978.792 660.326L983.339 658.35L987.882 656.372L992.429 654.396L996.975 652.417L1001.52 650.441L1006.07 648.466L1010.61 646.487L1015.16 644.511L1019.7 642.535L1024.25 640.556L1028.79 638.581L1033.34 636.602L1037.88 634.626L1042.43 632.65L1046.97 630.671L1051.52 628.696L1056.06 626.717L1060.61 624.741L1065.15 622.765L1069.7 620.786L1074.24 618.811L1078.79 616.832L1083.34 614.856L1087.88 612.881L1092.43 610.902L1096.97 608.926L1101.52 606.95L1106.06 604.971L1110.61 602.996L1115.15 601.017L1119.7 599.041L1124.24 597.065L1128.79 595.087L1133.33 593.111L1137.88 591.135L1142.42 589.156L1146.97 587.181L1151.51 585.201L1156.06 583.226L1160.6 581.25L1165.15 579.271L1169.69 577.295L1174.24 575.317L1178.79 573.341L1183.33 571.365L1187.88 569.386L1192.42 567.411L1196.97 565.435L1201.51 563.456L1206.06 561.48L1210.6 559.501L1215.15 557.526L1219.69 555.55L1224.24 553.571L1228.78 551.596L1233.33 549.62L1237.87 547.641L1242.42 545.665L1246.96 543.686L1251.51 541.711L1256.05 539.735L1260.6 537.756L1265.14 535.78L1269.69 533.801L1274.24 531.826L1278.78 529.85L1283.33 527.871L1287.87 525.895L1292.42 523.916L1296.96 521.941L1301.51 519.965L1306.05 517.986L1310.6 516.01L1315.14 514.035L1319.69 512.056L1324.23 510.08L1328.78 508.101L1333.32 506.126L1337.87 504.15L1342.41 502.171L1346.96 500.195L1351.5 498.22L1356.05 496.241L1360.59 494.265L1355.76 495.338L1350.92 496.407L1346.08 497.48L1341.24 498.553L1336.4 499.626L1331.56 500.699L1326.72 501.769L1321.88 502.841L1317.04 503.914L1312.2 504.987L1307.37 506.06L1302.52 507.133L1297.69 508.203L1292.85 509.276L1288.01 510.349L1283.17 511.421L1278.33 512.494L1273.49 513.564L1268.65 514.636L1263.81 515.709L1258.97 516.782L1254.13 517.855L1249.29 518.925L1244.45 519.998L1239.62 521.071L1234.78 522.144L1229.94 523.216L1225.1 524.289L1220.26 525.359L1215.42 526.432L1210.58 527.505L1205.74 528.578L1200.9 529.651L1196.06 530.72L1191.22 531.793L1186.38 532.866L1181.54 533.939L1176.71 535.011L1171.86 536.081L1167.03 537.154L1162.19 538.227L1157.35 539.3L1152.51 540.373L1147.67 541.446L1142.83 542.515L1137.99 543.588L1133.15 544.661L1128.31 545.734L1123.47 546.807L1118.64 547.876L1113.8 548.949L1108.96 550.022L1104.12 551.095L1099.28 552.168L1094.44 553.237L1089.6 554.31L1084.76 555.383L1079.92 556.456L1075.08 557.529L1070.24 558.602L1065.4 559.672L1060.57 560.744L1055.73 561.817L1050.89 562.89L1046.05 563.963L1041.21 565.032L1036.37 566.105L1031.53 567.178L1026.69 568.251L1021.85 569.324L1017.01 570.394L1012.17 571.467L1007.33 572.539L1002.49 573.612L997.656 574.685L992.815 575.758L987.977 576.828L983.139 577.901L978.298 578.974L973.46 580.047L968.619 581.119L963.782 582.189L958.94 583.262L954.103 584.334L949.265 585.407L944.424 586.48L939.586 587.55L934.745 588.623L929.907 589.696L925.066 590.769L920.228 591.842L915.387 592.914L910.55 593.984L905.712 595.057L900.871 596.13L896.033 597.203L891.192 598.276L886.354 599.345L881.513 600.418L876.675 601.491L871.837 602.564L866.996 603.637L862.159 604.706L857.318 605.779L852.48 606.852L847.639 607.925L842.801 608.998L837.963 610.068L833.122 611.14L828.284 612.213L823.443 613.286L818.605 614.359L813.764 615.432L808.927 616.502L804.086 617.575L799.248 618.647L794.41 619.72L789.569 620.793L784.731 621.863L779.89 622.935L775.052 624.008L770.211 625.081L765.374 626.154L760.536 627.227L755.695 628.297L750.857 629.37L746.016 630.442L741.178 631.515L740.701 626.579L740.226 621.647L739.752 616.714L739.274 611.782L738.8 606.846L738.323 601.913L737.848 596.98L737.374 592.044L736.896 587.112L736.422 582.179L735.945 577.243L735.47 572.311L734.996 567.378L734.518 562.442L734.044 557.509L733.567 552.577L733.092 547.641L732.618 542.708L732.14 537.776L731.666 532.84L731.188 527.907L730.714 522.974L730.24 518.038L729.762 513.106L729.288 508.173L728.811 503.237L728.336 498.305L727.862 493.372L727.384 488.436L726.91 483.503L726.433 478.571L725.958 473.635L725.484 468.702L725.006 463.77L724.532 458.834L724.054 453.901L723.58 448.969L723.106 444.032L722.628 439.1L722.154 434.167L721.677 429.231L721.202 424.299L720.728 419.366L720.25 414.43L719.776 409.498L719.299 404.565L718.824 399.629L718.347 394.696L717.872 389.764L717.398 384.828L716.92 379.895L716.446 374.963L715.969 370.027L715.494 365.094L715.02 360.161L714.543 355.225L714.068 350.293L713.594 345.36L713.116 340.428L712.642 335.492L712.165 330.559L711.69 325.626L711.213 320.69L710.738 315.758L710.264 310.825L709.786 305.889L709.312 300.957L708.835 296.024L708.36 291.088L707.886 286.155L707.409 281.223L706.934 276.287L706.46 271.354L705.982 266.422L705.508 261.486L705.031 256.553L704.556 251.62L704.079 246.684L703.604 241.752L703.13 236.819L702.652 231.883L702.178 226.951L701.701 222.018L701.226 217.082L700.752 212.149L700.274 207.217L699.8 202.281L699.323 197.348L698.848 192.416L698.374 187.48L697.897 182.547L697.422 177.614L696.945 172.678L696.47 167.746L695.996 162.813L695.518 157.877L695.044 152.945L694.567 148.012L694.092 143.076L693.618 138.143L693.14 133.211L692.666 128.275L692.189 123.342L691.714 118.41L691.24 113.474L690.763 108.541L690.288 103.608L689.811 98.6725L689.336 93.74L688.859 88.8072L688.384 83.8712L687.91 78.9388L687.433 74.0059L686.958 69.0735L686.481 64.1375L686.006 59.2047L685.532 54.2723L685.055 49.3362L684.58 44.4038L684.103 39.471L683.629 34.535L683.154 29.6025L682.677 24.6697L682.202 19.7341L681.725 14.8013L681.25 9.86844L680.776 4.93282L680.299 0L679.824 4.93282L679.347 9.86844L678.872 14.8013L678.398 19.7341L677.921 24.6697L677.446 29.6025L676.969 34.535L676.494 39.471L676.02 44.4038L675.543 49.3362L675.068 54.2723L674.591 59.2047L674.116 64.1375L673.642 69.0735L673.165 74.0059L672.69 78.9388L672.213 83.8712L671.738 88.8072L671.264 93.74L670.787 98.6725L670.312 103.608L669.835 108.541L669.36 113.474L668.886 118.41L668.409 123.342L667.934 128.275L667.46 133.211L666.982 138.143L666.508 143.076L666.031 148.012L665.556 152.945L665.082 157.877L664.604 162.813L664.13 167.746L663.653 172.678L663.178 177.614L662.704 182.547L662.226 187.48L661.752 192.416L661.275 197.348L660.8 202.281L660.326 207.217L659.848 212.149L659.374 217.082L658.897 222.018L658.422 226.951L657.948 231.883L657.47 236.819L656.996 241.752L656.519 246.684L656.044 251.62L655.57 256.553L655.092 261.486L654.618 266.422L654.141 271.354L653.666 276.287L653.192 281.223L652.714 286.155L652.24 291.088L651.763 296.024L651.288 300.957L650.814 305.889L650.336 310.825L649.862 315.758L649.385 320.69L648.91 325.626L648.436 330.559L647.958 335.492L647.484 340.428L647.007 345.36L646.532 350.293L646.058 355.225L645.58 360.161L645.106 365.094L644.629 370.027L644.154 374.963L643.68 379.895L643.202 384.828L642.728 389.764L642.254 394.696L641.776 399.629L641.302 404.565L640.824 409.498L640.35 414.43L639.873 419.366L639.398 424.299L638.924 429.231L638.446 434.167L637.972 439.1L637.495 444.032L637.02 448.969L636.546 453.901L636.068 458.834L635.594 463.77L635.12 468.702L634.642 473.635L634.168 478.571L633.69 483.503L633.216 488.436L632.739 493.372L632.264 498.305L631.79 503.237L631.312 508.173L630.838 513.106L630.361 518.038L629.886 522.974L629.412 527.907L628.934 532.84L628.46 537.776L627.986 542.708L627.508 547.641L627.034 552.577L626.556 557.509L626.082 562.442L625.608 567.378L625.13 572.311L624.656 577.243L624.178 582.179L623.704 587.112L623.23 592.044L622.752 596.98L622.278 601.913L621.8 606.846L621.326 611.782L620.852 616.714L620.374 621.647L619.9 626.579L619.422 631.515L614.585 630.442L609.744 629.37L604.906 628.297L600.068 627.227L595.227 626.154L590.389 625.081L585.548 624.008L580.71 622.935L575.869 621.863L571.032 620.793L566.19 619.72L561.353 618.647L556.515 617.575L551.674 616.502L546.836 615.432L541.995 614.359L537.157 613.286L532.316 612.213L527.478 611.14L522.637 610.068L517.8 608.998L512.962 607.925L508.121 606.852L503.283 605.779L498.442 604.706L493.604 603.637L488.763 602.564L483.925 601.491L479.084 600.418L474.246 599.345L469.409 598.276L464.568 597.203L459.73 596.13L454.889 595.057L450.051 593.984L445.21 592.914L440.372 591.842L435.531 590.769L430.693 589.696L425.852 588.623L421.015 587.55L416.177 586.48L411.336 585.407L406.498 584.334L401.657 583.262L396.819 582.189L391.978 581.119L387.14 580.047L382.299 578.974L377.461 577.901L372.624 576.828L367.783 575.758L362.945 574.685L358.104 573.612L353.266 572.539L348.425 571.467L343.587 570.394L338.746 569.324L333.908 568.251L329.07 567.178L324.229 566.105L319.392 565.032L314.551 563.963L309.713 562.89L304.872 561.817L300.034 560.744L295.193 559.672L290.355 558.602L285.517 557.529L280.676 556.456L275.839 555.383L270.997 554.31L266.16 553.237L261.319 552.168L256.481 551.095L251.64 550.022L246.802 548.949L241.964 547.876L237.123 546.807L232.285 545.734L227.444 544.661L222.607 543.588L217.766 542.515L212.928 541.446L208.087 540.373L203.249 539.3L198.411 538.227L193.57 537.154L188.732 536.081L183.891 535.011L179.054 533.939L174.212 532.866L169.375 531.793L164.537 530.72L159.696 529.651L154.858 528.578L150.017 527.505L145.179 526.432L140.338 525.359L135.5 524.289L130.659 523.216L125.822 522.144L120.98 521.071L116.143 519.998L111.305 518.925L106.464 517.855L101.626 516.782L96.7851 515.709L91.9473 514.636L87.1062 513.564L82.2684 512.494L77.4274 511.421L72.5896 510.349L67.7486 509.276L62.9108 508.203L58.073 507.133L53.2319 506.06L48.3942 504.987L43.5531 503.914L38.7154 502.841L33.8743 501.769L29.0365 500.699L24.1955 499.626L19.3577 498.553L14.5199 497.48L9.67883 496.407L4.84109 495.338L0 494.265L4.54671 496.241L9.09008 498.22L13.6367 500.195L18.1834 502.171L22.7268 504.15L27.2735 506.126L31.8168 508.101L36.3635 510.08L40.9069 512.056L45.4536 514.035L50.0002 516.01L54.5436 517.986L59.0903 519.965L63.6337 521.941L68.1804 523.916L72.7237 525.895L77.2704 527.871L81.817 529.85L86.3605 531.826L90.9071 533.801L95.4505 535.78L99.9972 537.756L104.544 539.735L109.087 541.711L113.634 543.686L118.177 545.665L122.724 547.641L127.267 549.62L131.814 551.596L136.357 553.571L140.904 555.55L145.451 557.526L149.994 559.501L154.541 561.48L159.084 563.456L163.631 565.435L168.174 567.411L172.721 569.386L177.268 571.365L181.811 573.341L186.358 575.317L190.901 577.295L195.448 579.271L199.994 581.25L204.538 583.226L209.084 585.201L213.628 587.181L218.174 589.156L222.718 591.135L227.264 593.111L231.808 595.087L236.355 597.065L240.901 599.041L245.445 601.017L249.991 602.996L254.535 604.971L259.081 606.95L263.625 608.926L268.171 610.902L272.718 612.881L277.261 614.856L281.808 616.832L286.351 618.811L290.898 620.786L295.445 622.765L299.988 624.741L304.535 626.717L309.078 628.696L313.625 630.671L318.168 632.65L322.715 634.626L327.258 636.602L331.805 638.581L336.352 640.556L340.895 642.535L345.442 644.511L349.985 646.487L354.532 648.466L359.075 650.441L363.622 652.417L368.169 654.396L372.712 656.372L377.259 658.35L381.802 660.326L386.349 662.302L390.895 664.281L395.439 666.256L399.985 668.232L404.529 670.211L409.075 672.187L413.619 674.165L418.165 676.141L422.709 678.117L427.256 680.096L431.802 682.071L436.346 684.051L440.892 686.026L445.436 688.002L449.982 689.981L454.529 691.957L459.072 693.936L463.619 695.911L468.162 697.887L472.709 699.866L477.252 701.841L481.799 703.817L486.346 705.796L490.889 707.772L495.436 709.747L499.979 711.726L504.526 713.702L509.069 715.681L513.616 717.657L518.163 719.632L522.706 721.611L527.253 723.587L531.796 725.566L536.343 727.541L540.886 729.517L545.433 731.496L549.979 733.472L554.523 735.451L559.069 737.427L563.613 739.402L568.16 741.381L572.703 743.357L577.25 745.332L581.796 747.311L579.281 751.583L576.766 755.852L574.25 760.124L571.735 764.396L569.219 768.664L566.704 772.936L564.189 777.208L561.673 781.48L559.158 785.749L556.642 790.021L554.127 794.293L551.612 798.564L549.096 802.833L546.581 807.105L544.065 811.377L541.553 815.645L539.038 819.917L536.523 824.189L534.007 828.461L531.492 832.73L528.977 837.002L526.461 841.273L523.946 845.545L521.43 849.814L518.915 854.086L516.4 858.358L513.884 862.63L511.369 866.898L508.853 871.17L506.338 875.442L503.823 879.714L501.311 883.983L498.795 888.255L496.28 892.527L493.764 896.795L491.249 901.067L488.734 905.339L486.218 909.611L483.703 913.879L481.187 918.151L478.672 922.423L476.157 926.692L473.641 930.964L471.126 935.236L468.611 939.507L466.095 943.776L463.58 948.048L461.068 952.32L458.552 956.592L456.037 960.861L453.521 965.133L451.006 969.404L448.491 973.676L445.975 977.945L443.46 982.217L440.945 986.489L438.429 990.757L435.914 995.029L433.398 999.301L430.883 1003.57L428.368 1007.84L425.852 1012.11L423.337 1016.39L420.822 1020.66L418.309 1024.93L415.794 1029.2L413.279 1033.47L410.763 1037.74L408.248 1042.01L405.732 1046.28L403.217 1050.55L400.702 1054.82L398.186 1059.09L395.671 1063.37L393.156 1067.64L390.64 1071.91L388.125 1076.18L385.609 1080.45L383.094 1084.72L380.579 1088.99L378.067 1093.26L375.551 1097.54L373.036 1101.8L370.52 1106.08L368.005 1110.35L365.49 1114.62L362.974 1118.89L360.459 1123.16L357.943 1127.43L355.428 1131.7L352.913 1135.97L350.397 1140.24L347.882 1144.52L345.367 1148.79L342.851 1153.06L340.336 1157.33L337.824 1161.6L335.308 1165.87L332.793 1170.14L330.278 1174.41L327.762 1178.69L325.247 1182.95L322.731 1187.23L320.216 1191.5L317.701 1195.77L315.185 1200.04L312.67 1204.31L310.154 1208.58L307.639 1212.85L305.124 1217.12L302.608 1221.39L300.093 1225.67L297.581 1229.93L295.065 1234.21L292.55 1238.48L290.035 1242.75L287.519 1247.02L285.004 1251.29L282.488 1255.56L279.973 1259.83L277.458 1264.1L274.942 1268.38L272.427 1272.65L269.912 1276.92L267.396 1281.19L264.881 1285.46L262.365 1289.73L259.85 1294Z" fill="white"/>
<path d="M405.974 337.467L408.12 339.888L410.263 342.308L412.405 344.732L414.548 347.152L416.69 349.577L418.836 351.997L420.978 354.421L423.121 356.841L425.263 359.262L427.406 361.685L429.552 364.106L431.694 366.53L433.837 368.95L435.979 371.371L438.122 373.795L440.267 376.215L442.41 378.639L444.552 381.06L446.695 383.483L448.837 385.904L450.983 388.324L453.126 390.748L455.268 393.169L457.411 395.593L459.553 398.013L461.699 400.434L463.841 402.857L465.984 405.278L468.126 407.698L470.272 410.122L472.415 412.543L474.557 414.967L476.7 417.387L478.842 419.811L480.988 422.231L483.13 424.652L485.273 427.076L487.415 429.496L489.558 431.92L491.704 434.341L493.846 436.761L495.989 439.185L498.131 441.606L500.274 444.029L502.419 446.45L504.562 448.87L506.704 451.294L508.847 453.714L510.989 456.139L513.135 458.559L515.278 460.983L517.42 463.403L519.563 465.824L521.705 468.247L523.851 470.668L525.993 473.092L528.136 475.513L530.278 477.933L532.421 480.357L534.567 482.777L536.709 485.201L538.851 487.622L540.994 490.042L543.136 492.466L545.282 494.886L547.425 497.31L549.567 499.731L551.71 502.151L553.852 504.575L555.998 506.996L558.14 509.419L560.283 511.84L562.425 514.26L564.568 516.684L566.714 519.105L568.856 521.529L570.999 523.949L573.141 526.37L575.284 528.793L577.429 531.214L579.572 533.638L581.714 536.058L583.857 538.482L585.999 540.903L588.145 543.323L590.288 545.747L592.43 548.168L594.573 550.591L596.715 553.012L598.861 555.432L601.003 557.856L603.146 560.277L605.288 562.701L607.431 565.121L609.577 567.545L611.719 569.965L613.862 572.386L616.004 574.809L618.147 577.23L620.292 579.654L622.435 582.075L624.577 584.495L626.72 586.919L628.862 589.339L631.008 591.76L633.151 594.184L635.293 596.604L637.436 599.028L639.578 601.448L641.724 603.872L643.866 606.293L646.009 608.713L648.151 611.137L650.294 613.558L652.44 615.981L654.582 618.402L656.725 620.822L658.867 623.246L661.01 625.667L663.155 628.091L665.298 630.511L667.44 632.932L669.583 635.355L671.725 637.776L673.871 640.2L676.014 642.62L678.156 645.044L680.299 647.465L682.441 645.044L684.587 642.62L686.729 640.2L688.872 637.776L691.014 635.355L693.157 632.932L695.303 630.511L697.445 628.091L699.588 625.667L701.73 623.246L703.873 620.822L706.018 618.402L708.161 615.981L710.303 613.558L712.446 611.137L714.588 608.713L716.734 606.293L718.877 603.872L721.019 601.448L723.162 599.028L725.304 596.604L727.45 594.184L729.592 591.76L731.735 589.339L733.877 586.919L736.02 584.495L738.166 582.075L740.308 579.654L742.451 577.23L744.593 574.809L746.735 572.386L748.881 569.965L751.024 567.545L753.166 565.121L755.309 562.701L757.451 560.277L759.594 557.856L761.739 555.432L763.882 553.012L766.024 550.591L768.167 548.168L770.309 545.747L772.455 543.323L774.598 540.903L776.74 538.482L778.883 536.058L781.025 533.638L783.171 531.214L785.313 528.793L787.456 526.37L789.598 523.949L791.741 521.529L793.887 519.105L796.029 516.684L798.172 514.26L800.314 511.84L802.46 509.419L804.602 506.996L806.745 504.575L808.887 502.151L811.03 499.731L813.172 497.31L815.318 494.886L817.461 492.466L819.603 490.042L821.746 487.622L823.888 485.201L826.034 482.777L828.176 480.357L830.319 477.933L832.461 475.513L834.604 473.092L836.75 470.668L838.892 468.247L841.035 465.824L843.177 463.403L845.32 460.983L847.465 458.559L849.608 456.139L851.75 453.714L853.893 451.294L856.035 448.87L858.181 446.45L860.324 444.029L862.466 441.606L864.608 439.185L866.751 436.761L868.893 434.341L871.039 431.92L873.182 429.496L875.324 427.076L877.467 424.652L879.609 422.231L881.755 419.811L883.897 417.387L886.04 414.967L888.182 412.543L890.325 410.122L892.471 407.698L894.613 405.278L896.756 402.857L898.898 400.434L901.041 398.013L903.186 395.593L905.329 393.169L907.471 390.748L909.614 388.324L911.756 385.904L913.902 383.483L916.045 381.06L918.187 378.639L920.33 376.215L922.472 373.795L924.618 371.371L926.76 368.95L928.903 366.53L931.046 364.106L933.188 361.685L935.334 359.262L937.476 356.841L939.619 354.421L941.761 351.997L943.904 349.577L946.049 347.152L948.192 344.732L950.334 342.308L952.477 339.888L954.619 337.467L952.981 340.254L951.339 343.041L949.697 345.828L948.058 348.611L946.416 351.399L944.774 354.185L943.132 356.972L941.493 359.759L939.851 362.546L938.209 365.333L936.57 368.12L934.928 370.907L933.286 373.693L931.647 376.48L930.005 379.267L928.363 382.054L926.724 384.841L925.082 387.624L923.44 390.411L921.798 393.198L920.16 395.985L918.518 398.772L916.876 401.559L915.237 404.346L913.595 407.133L911.953 409.92L910.314 412.706L908.672 415.493L907.03 418.28L905.388 421.067L903.749 423.854L902.107 426.637L900.465 429.424L898.826 432.211L897.184 434.998L895.542 437.785L893.903 440.572L892.261 443.359L890.619 446.146L888.977 448.933L887.339 451.719L885.697 454.506L884.054 457.293L882.416 460.08L880.774 462.867L879.132 465.65L877.493 468.437L875.851 471.224L874.209 474.011L872.57 476.798L870.928 479.585L869.286 482.372L867.644 485.159L866.005 487.946L864.363 490.732L862.721 493.519L861.082 496.306L859.44 499.093L857.798 501.88L856.16 504.663L854.518 507.45L852.876 510.237L851.233 513.024L849.595 515.811L847.953 518.598L846.311 521.385L844.672 524.172L843.03 526.959L841.388 529.745L839.749 532.532L838.107 535.319L836.465 538.106L834.826 540.893L833.184 543.68L831.542 546.463L829.9 549.25L828.261 552.037L826.619 554.824L824.977 557.611L823.339 560.398L821.697 563.185L820.054 565.972L818.416 568.758L816.774 571.545L815.132 574.332L813.49 577.119L811.851 579.902L810.209 582.693L808.567 585.476L806.928 588.263L805.286 591.05L803.644 593.837L802.005 596.624L800.363 599.411L798.721 602.198L797.082 604.985L795.44 607.771L793.798 610.558L792.156 613.345L790.517 616.132L788.876 618.915L787.233 621.706L785.595 624.489L783.953 627.276L782.311 630.063L780.672 632.85L779.03 635.637L777.388 638.423L775.746 641.211L774.107 643.998L772.465 646.784L770.823 649.571L769.184 652.358L767.542 655.145L765.9 657.928L764.261 660.719L762.619 663.502L760.977 666.289L759.339 669.076L757.696 671.863L756.055 674.65L754.412 677.436L752.774 680.224L751.132 683.011L749.49 685.797L747.851 688.584L746.209 691.371L744.567 694.158L747.534 695.447L750.497 696.735L753.464 698.027L756.431 699.316L759.394 700.605L762.361 701.897L765.328 703.186L768.291 704.474L771.258 705.766L774.225 707.055L777.188 708.344L780.155 709.636L783.119 710.925L786.085 712.214L789.052 713.506L792.016 714.794L794.982 716.083L797.949 717.375L800.913 718.664L803.88 719.953L806.843 721.245L809.81 722.533L812.777 723.822L815.74 725.114L818.707 726.403L821.674 727.692L824.637 728.984L827.604 730.273L830.571 731.561L833.534 732.854L836.501 734.142L839.465 735.431L842.431 736.723L845.398 738.012L848.362 739.301L851.328 740.593L854.295 741.881L857.259 743.17L860.225 744.462L863.189 745.751L866.156 747.04L869.122 748.332L872.086 749.62L875.053 750.909L878.02 752.201L880.983 753.49L883.95 754.779L886.917 756.071L889.88 757.36L892.847 758.648L895.81 759.941L898.777 761.229L901.744 762.518L904.707 763.81L907.674 765.099L910.641 766.388L913.605 767.68L916.571 768.968L919.535 770.257L922.502 771.549L925.468 772.838L928.432 774.127L931.399 775.419L934.365 776.707L937.329 777.996L940.296 779.289L943.259 780.577L946.226 781.866L949.193 783.158L952.156 784.447L955.123 785.735L958.09 787.028L961.053 788.316L964.02 789.605L966.987 790.897L969.95 792.186L972.917 793.475L975.881 794.767L978.847 796.055L981.814 797.344L984.778 798.636L987.745 799.925L990.711 801.214L993.675 802.506L996.642 803.795L999.605 805.083L1002.57 806.376L1005.54 807.664L1008.5 808.953L1011.47 810.245L1014.44 811.534L1017.4 812.822L1020.37 814.115L1023.33 815.403L1026.3 816.692L1029.26 817.984L1032.23 819.273L1035.19 820.565L1038.16 821.854L1041.12 823.142L1044.09 824.435L1047.06 825.723L1050.02 827.012L1052.99 828.304L1055.95 829.593L1058.92 830.882L1061.88 832.17L1064.85 833.463L1067.81 834.751L1070.78 836.04L1073.75 837.332L1076.71 838.621L1079.68 839.909L1082.64 841.202L1085.61 842.49L1088.57 843.783L1091.54 845.071L1094.51 846.36L1097.47 847.652L1100.44 848.941L1103.4 850.23L1106.37 851.522L1109.33 852.81L1112.3 854.099L1115.26 855.391L1118.23 856.68L1121.19 857.969L1124.16 859.261L1121 858.561L1117.84 857.861L1114.69 857.161L1111.53 856.461L1108.38 855.761L1105.22 855.061L1102.06 854.361L1098.9 853.661L1095.75 852.964L1092.59 852.264L1089.43 851.564L1086.27 850.864L1083.12 850.164L1079.96 849.464L1076.8 848.764L1073.64 848.064L1070.48 847.367L1067.33 846.667L1064.17 845.967L1061.01 845.268L1057.85 844.568L1054.7 843.868L1051.54 843.167L1048.39 842.467L1045.23 841.767L1042.07 841.071L1038.91 840.371L1035.76 839.671L1032.6 838.971L1029.44 838.271L1026.28 837.571L1023.13 836.871L1019.97 836.171L1016.81 835.474L1013.65 834.774L1010.5 834.074L1007.34 833.374L1004.18 832.674L1001.02 831.974L997.865 831.274L994.708 830.574L991.552 829.874L988.395 829.174L985.236 828.477L982.079 827.777L978.923 827.077L975.766 826.378L972.607 825.678L969.45 824.978L966.294 824.278L963.137 823.581L959.977 822.881L956.821 822.181L953.664 821.481L950.508 820.781L947.348 820.081L944.192 819.381L941.035 818.681L937.875 817.981L934.719 817.281L931.562 816.584L928.406 815.884L925.249 815.184L922.089 814.484L918.933 813.784L915.776 813.084L912.617 812.384L909.46 811.688L906.304 810.988L903.147 810.287L899.987 809.587L896.831 808.887L893.674 808.187L890.518 807.488L887.358 806.788L884.202 806.088L881.045 805.391L877.885 804.691L874.729 803.991L871.572 803.291L868.416 802.591L865.256 801.891L862.1 801.191L858.943 800.491L855.787 799.791L852.627 799.094L849.47 798.394L846.314 797.694L843.157 796.994L839.998 796.294L836.841 795.594L833.685 794.894L830.528 794.194L827.368 793.498L824.212 792.798L821.055 792.098L817.899 791.398L814.739 790.698L811.583 789.997L808.426 789.297L805.266 788.598L802.11 787.898L798.953 787.201L795.797 786.501L792.637 785.801L789.481 785.101L786.324 784.401L783.168 783.701L780.008 783.001L776.851 782.301L773.695 781.604L770.538 780.904L767.379 780.204L764.222 779.505L761.066 778.804L757.906 778.104L754.749 777.404L751.593 776.704L748.436 776.004L745.277 775.308L742.12 774.608L738.964 773.908L735.807 773.208L732.647 772.508L729.491 771.808L726.334 771.108L723.178 770.408L720.018 769.711L719.707 772.93L719.4 776.148L719.089 779.367L718.778 782.585L718.468 785.804L718.157 789.023L717.846 792.241L717.535 795.46L717.228 798.682L716.917 801.901L716.606 805.119L716.296 808.338L715.985 811.557L715.674 814.775L715.363 817.994L715.053 821.213L714.745 824.435L714.435 827.653L714.124 830.872L713.813 834.091L713.502 837.309L713.192 840.528L712.881 843.746L712.573 846.965L712.263 850.184L711.952 853.402L711.641 856.624L711.33 859.843L711.02 863.061L710.709 866.28L710.398 869.499L710.091 872.717L709.78 875.936L709.469 879.158L709.158 882.377L708.848 885.595L708.537 888.814L708.226 892.033L707.915 895.251L707.608 898.47L707.297 901.688L706.986 904.907L706.676 908.129L706.365 911.348L706.054 914.566L705.744 917.785L705.436 921.004L705.125 924.222L704.815 927.441L704.504 930.66L704.193 933.878L703.882 937.1L703.572 940.319L703.261 943.538L702.953 946.756L702.643 949.975L702.332 953.194L702.021 956.412L701.71 959.631L701.4 962.853L701.089 966.071L700.781 969.29L700.471 972.508L700.16 975.727L699.849 978.946L699.538 982.164L699.228 985.383L698.917 988.602L698.606 991.82L698.299 995.042L697.988 998.261L697.677 1001.48L697.367 1004.7L697.056 1007.92L696.745 1011.14L696.434 1014.35L696.127 1017.58L695.816 1020.79L695.505 1024.01L695.195 1027.23L694.884 1030.45L694.573 1033.67L694.262 1036.89L693.955 1040.11L693.644 1043.33L693.333 1046.54L693.023 1049.77L692.712 1052.98L692.401 1056.2L692.09 1059.42L691.78 1062.64L691.472 1065.86L691.161 1069.08L690.851 1072.3L690.54 1075.52L690.229 1078.74L689.919 1081.96L689.608 1085.17L689.297 1088.39L688.99 1091.61L688.679 1094.83L688.368 1098.05L688.057 1101.27L687.747 1104.49L687.436 1107.71L687.125 1110.93L686.814 1114.15L686.507 1117.36L686.196 1120.58L685.885 1123.8L685.575 1127.02L685.264 1130.24L684.953 1133.46L684.642 1136.68L684.335 1139.9L684.024 1143.12L683.713 1146.34L683.403 1149.55L683.092 1152.77L682.781 1155.99L682.471 1159.21L682.16 1162.43L681.852 1165.65L681.542 1168.87L681.231 1172.09L680.92 1175.31L680.609 1178.52L680.299 1181.74L679.988 1178.52L679.68 1175.31L679.37 1172.09L679.059 1168.87L678.748 1165.65L678.437 1162.43L678.127 1159.21L677.816 1155.99L677.505 1152.77L677.198 1149.55L676.887 1146.34L676.576 1143.12L676.265 1139.9L675.955 1136.68L675.644 1133.46L675.333 1130.24L675.022 1127.02L674.715 1123.8L674.404 1120.58L674.094 1117.36L673.783 1114.15L673.472 1110.93L673.161 1107.71L672.851 1104.49L672.543 1101.27L672.232 1098.05L671.922 1094.83L671.611 1091.61L671.3 1088.39L670.989 1085.17L670.679 1081.96L670.368 1078.74L670.06 1075.52L669.75 1072.3L669.439 1069.08L669.128 1065.86L668.817 1062.64L668.507 1059.42L668.196 1056.2L667.888 1052.98L667.578 1049.77L667.267 1046.54L666.956 1043.33L666.645 1040.11L666.335 1036.89L666.024 1033.67L665.713 1030.45L665.406 1027.23L665.095 1024.01L664.784 1020.79L664.474 1017.58L664.163 1014.35L663.852 1011.14L663.541 1007.92L663.234 1004.7L662.923 1001.48L662.612 998.261L662.302 995.042L661.991 991.82L661.68 988.602L661.369 985.383L661.062 982.164L660.751 978.946L660.44 975.727L660.13 972.508L659.819 969.29L659.508 966.071L659.198 962.853L658.887 959.631L658.579 956.412L658.268 953.194L657.958 949.975L657.647 946.756L657.336 943.538L657.026 940.319L656.715 937.1L656.404 933.878L656.097 930.66L655.786 927.441L655.475 924.222L655.164 921.004L654.854 917.785L654.543 914.566L654.232 911.348L653.921 908.129L653.614 904.907L653.303 901.688L652.992 898.47L652.682 895.251L652.371 892.033L652.06 888.814L651.749 885.595L651.442 882.377L651.131 879.158L650.821 875.936L650.51 872.717L650.199 869.499L649.888 866.28L649.578 863.061L649.267 859.843L648.959 856.624L648.649 853.402L648.338 850.184L648.027 846.965L647.716 843.746L647.406 840.528L647.095 837.309L646.784 834.091L646.477 830.872L646.166 827.653L645.855 824.435L645.544 821.213L645.234 817.994L644.923 814.775L644.612 811.557L644.305 808.338L643.994 805.119L643.683 801.901L643.372 798.682L643.062 795.46L642.751 792.241L642.44 789.023L642.129 785.804L641.822 782.585L641.511 779.367L641.201 776.148L640.89 772.93L640.579 769.711L637.423 770.408L634.266 771.108L631.106 771.808L627.95 772.508L624.793 773.208L621.637 773.908L618.477 774.608L615.321 775.308L612.164 776.004L609.007 776.704L605.848 777.404L602.691 778.104L599.535 778.804L596.375 779.505L593.218 780.204L590.062 780.904L586.906 781.604L583.746 782.301L580.589 783.001L577.433 783.701L574.273 784.401L571.116 785.101L567.96 785.801L564.804 786.501L561.644 787.201L558.487 787.898L555.331 788.598L552.174 789.297L549.014 789.997L545.858 790.698L542.701 791.398L539.545 792.098L536.385 792.798L533.229 793.498L530.072 794.194L526.912 794.894L523.756 795.594L520.599 796.294L517.443 796.994L514.283 797.694L511.127 798.394L507.97 799.094L504.814 799.791L501.654 800.491L498.497 801.191L495.341 801.891L492.184 802.591L489.025 803.291L485.868 803.991L482.712 804.691L479.552 805.391L476.395 806.088L473.239 806.788L470.082 807.488L466.923 808.187L463.766 808.887L460.61 809.587L457.453 810.287L454.293 810.988L451.137 811.688L447.98 812.384L444.824 813.084L441.664 813.784L438.508 814.484L435.351 815.184L432.191 815.884L429.035 816.584L425.878 817.281L422.722 817.981L419.562 818.681L416.406 819.381L413.249 820.081L410.093 820.781L406.933 821.481L403.776 822.181L400.62 822.881L397.46 823.581L394.304 824.278L391.147 824.978L387.991 825.678L384.831 826.378L381.674 827.077L378.518 827.777L375.361 828.477L372.202 829.174L369.045 829.874L365.889 830.574L362.729 831.274L359.572 831.974L356.416 832.674L353.259 833.374L350.1 834.074L346.943 834.774L343.787 835.474L340.63 836.171L337.47 836.871L334.314 837.571L331.157 838.271L328.001 838.971L324.841 839.671L321.685 840.371L318.528 841.071L315.368 841.767L312.212 842.467L309.055 843.167L305.899 843.868L302.739 844.568L299.583 845.268L296.426 845.967L293.27 846.667L290.11 847.367L286.953 848.064L283.797 848.764L280.64 849.464L277.48 850.164L274.324 850.864L271.167 851.564L268.008 852.264L264.851 852.964L261.695 853.661L258.538 854.361L255.378 855.061L252.222 855.761L249.066 856.461L245.909 857.161L242.749 857.861L239.593 858.561L236.436 859.261L239.4 857.969L242.367 856.68L245.333 855.391L248.297 854.099L251.264 852.81L254.23 851.522L257.194 850.23L260.161 848.941L263.124 847.652L266.091 846.36L269.058 845.071L272.021 843.783L274.988 842.49L277.955 841.202L280.918 839.909L283.885 838.621L286.849 837.332L289.815 836.04L292.782 834.751L295.746 833.463L298.712 832.17L301.679 830.882L304.643 829.593L307.609 828.304L310.576 827.012L313.54 825.723L316.507 824.435L319.47 823.142L322.437 821.854L325.404 820.565L328.367 819.273L331.334 817.984L334.301 816.692L337.264 815.403L340.231 814.115L343.198 812.822L346.161 811.534L349.128 810.245L352.092 808.953L355.058 807.664L358.025 806.376L360.989 805.083L363.955 803.795L366.922 802.506L369.886 801.214L372.853 799.925L375.816 798.636L378.783 797.344L381.75 796.055L384.713 794.767L387.68 793.475L390.647 792.186L393.61 790.897L396.577 789.605L399.54 788.316L402.507 787.028L405.474 785.735L408.437 784.447L411.404 783.158L414.371 781.866L417.335 780.577L420.301 779.289L423.268 777.996L426.232 776.707L429.198 775.419L432.162 774.127L435.129 772.838L438.096 771.549L441.059 770.257L444.026 768.968L446.993 767.68L449.956 766.388L452.923 765.099L455.886 763.81L458.853 762.518L461.82 761.229L464.783 759.941L467.75 758.648L470.717 757.36L473.681 756.071L476.647 754.779L479.614 753.49L482.578 752.201L485.544 750.909L488.508 749.62L491.475 748.332L494.441 747.04L497.405 745.751L500.372 744.462L503.338 743.17L506.302 741.881L509.269 740.593L512.232 739.301L515.199 738.012L518.166 736.723L521.129 735.431L524.096 734.142L527.063 732.854L530.026 731.561L532.993 730.273L535.96 728.984L538.923 727.692L541.89 726.403L544.854 725.114L547.821 723.822L550.787 722.533L553.751 721.245L556.718 719.953L559.684 718.664L562.648 717.375L565.615 716.083L568.578 714.794L571.545 713.506L574.512 712.214L577.475 710.925L580.442 709.636L583.409 708.344L586.372 707.055L589.339 705.766L592.303 704.474L595.269 703.186L598.236 701.897L601.2 700.605L604.167 699.316L607.133 698.027L610.097 696.735L613.064 695.447L616.03 694.158L614.388 691.371L612.746 688.584L611.107 685.797L609.465 683.011L607.823 680.224L606.181 677.436L604.543 674.65L602.901 671.863L601.259 669.076L599.62 666.289L597.978 663.502L596.336 660.719L594.697 657.928L593.055 655.145L591.413 652.358L589.771 649.571L588.132 646.784L586.49 643.998L584.848 641.211L583.209 638.423L581.567 635.637L579.925 632.85L578.286 630.063L576.644 627.276L575.002 624.489L573.36 621.706L571.722 618.915L570.08 616.132L568.438 613.345L566.799 610.558L565.157 607.771L563.515 604.985L561.876 602.198L560.234 599.411L558.592 596.624L556.953 593.837L555.311 591.05L553.669 588.263L552.027 585.476L550.388 582.693L548.746 579.902L547.104 577.119L545.465 574.332L543.823 571.545L542.181 568.758L540.543 565.972L538.901 563.185L537.259 560.398L535.617 557.611L533.978 554.824L532.336 552.037L530.694 549.25L529.055 546.463L527.413 543.68L525.771 540.893L524.132 538.106L522.49 535.319L520.848 532.532L519.206 529.745L517.567 526.959L515.925 524.172L514.283 521.385L512.644 518.598L511.002 515.811L509.36 513.024L507.722 510.237L506.08 507.45L504.438 504.663L502.799 501.88L501.157 499.093L499.515 496.306L497.873 493.519L496.234 490.732L494.592 487.946L492.95 485.159L491.311 482.372L489.669 479.585L488.027 476.798L486.388 474.011L484.746 471.224L483.104 468.437L481.462 465.65L479.823 462.867L478.181 460.08L476.539 457.293L474.901 454.506L473.259 451.719L471.617 448.933L469.978 446.146L468.336 443.359L466.694 440.572L465.055 437.785L463.413 434.998L461.771 432.211L460.129 429.424L458.49 426.637L456.848 423.854L455.206 421.067L453.567 418.28L451.925 415.493L450.283 412.706L448.644 409.92L447.002 407.133L445.36 404.346L443.718 401.559L442.08 398.772L440.437 395.985L438.795 393.198L437.157 390.411L435.515 387.624L433.873 384.841L432.234 382.054L430.592 379.267L428.95 376.48L427.308 373.693L425.669 370.907L424.027 368.12L422.385 365.333L420.746 362.546L419.104 359.759L417.462 356.972L415.823 354.185L414.181 351.399L412.539 348.611L410.901 345.828L409.259 343.041L407.616 340.254L405.974 337.467Z" fill="white"/>
</svg>
